<svg style="height:1em;width:0.8em" viewBox="0 0 40 50" fill="none" xmlns="http://www.w3.org/2000/svg">
<path d="M21.1199 14.4882C21.9989 13.0202 23.3899 10.9192 25.1469 8.90321H25.1489C26.6369 7.19221 29.5509 4.99621 29.5509 4.99621C29.9889 4.66521 29.9419 4.20421 29.4439 3.97221L25.9219 2.32621C25.4239 2.09321 24.7469 2.26321 24.4169 2.70221C24.4169 2.70221 21.8119 6.43921 18.7459 14.3942C9.26588 10.1062 0.254883 16.1122 0.254883 26.5562C0.254883 37.4652 8.64788 54.0362 19.9979 49.0342C31.9519 54.2072 39.7469 37.4662 39.7469 26.5562C39.7469 16.0222 31.6469 9.84621 21.1199 14.4882Z" fill="#FFB524" class="fill-path"/>
<path d="M18.9968 10.9552C19.5448 10.9092 20.0288 10.4242 20.0728 9.87716C20.0728 9.87716 20.4248 5.61116 17.4518 2.63516C14.4698 -0.341836 10.2118 0.0131643 10.2118 0.0131643C9.66379 0.0591643 9.1798 0.544164 9.1348 1.09116C9.1348 1.09116 8.77679 5.35916 11.7538 8.33616C14.7288 11.3102 18.9968 10.9552 18.9968 10.9552Z" fill="#FFB524" class="fill-path"/>
</svg>
