<svg style="height:1em;width:0.76em" viewBox="0 0 38 50" fill="none" xmlns="http://www.w3.org/2000/svg">
<path d="M28.9535 6.38574C28.8457 6.34996 28.3003 6.15846 27.8691 6.02384C27.5332 5.9039 27.1363 5.77752 26.6692 5.5958C25.8712 5.35076 24.9701 5.12632 24.0685 4.94692C24.0484 4.95798 23.9122 4.84113 23.7076 4.46611C23.4935 4.15569 23.2726 3.56498 22.4811 3.43036H22.4819C22.4389 3.42573 22.3975 3.42367 22.3568 3.42367C21.2719 3.4875 19.3358 4.72736 19.1688 4.71295L18.9904 0.615785C18.9755 0.260841 18.6746 -0.014825 18.3199 0.000618475C17.9652 0.016062 17.6893 0.316438 17.7047 0.671896L17.8689 4.4468C17.2123 4.22802 15.4755 3.65893 14.5468 3.63937C14.5216 3.63937 14.4948 3.63937 14.466 3.64091H14.4683C13.6693 3.58017 13.3404 4.55233 13.3458 4.69004L13.3479 4.74332C13.3471 4.74332 13.3502 4.77009 13.198 4.75851C12.2164 4.84808 11.2679 4.96442 10.5268 5.12529C9.9459 5.34459 9.36806 5.26814 9.03731 5.8936C4.28122 7.22226 -0.109621 11.3081 0.00208657 20.115C0.00208657 22.6398 0.326658 25.5596 1.0386 28.9577C3.76181 41.7004 8.71789 49.8106 15.8618 50C22.4485 49.8517 28.7363 42.9006 34.733 28.3227C36.4678 24.0593 37.2382 20.5508 37.2397 17.6119C37.3066 11.2427 33.3477 7.75197 28.9535 6.38574ZM13.3146 6.04032C14.1128 6.06425 14.6358 5.25862 14.6075 4.9428C14.6088 4.93636 14.6096 4.9325 14.6109 4.92632C15.1885 4.94949 16.8878 5.48564 17.4929 5.67971L18.0102 6.54223C18.1889 6.84003 18.5711 6.94247 18.8751 6.77337C19.151 6.61945 19.2684 6.29205 19.1677 6.00145C19.1909 5.99939 19.2177 5.99733 19.2529 5.99604C20.1103 5.84393 21.9785 4.66559 22.3465 4.71089L22.3473 4.741C22.6008 4.90985 22.7318 5.88562 23.8173 6.20968C24.6782 6.38059 25.5423 6.59551 26.2905 6.82613C26.7327 6.96178 27.0913 7.08944 27.3706 7.20398C26.9641 7.25598 26.4293 7.29304 25.8429 7.28558C25.7065 7.28558 25.5657 7.28403 25.4226 7.28094C24.2106 7.25649 23.6111 7.18005 23.2384 7.17722C23.1493 7.17953 23.0724 7.1749 22.9233 7.21582C22.8042 7.21582 22.4011 7.48917 22.4189 7.87372C22.6397 8.70303 22.7916 8.43689 23.051 8.84305C23.3074 9.12618 23.6446 9.53878 23.9905 10.1635C24.2535 10.6363 24.3423 11.0394 24.3416 11.3163C24.3423 11.5112 24.2968 11.6352 24.2667 11.6862C24.199 11.6515 24.0535 11.5251 23.8541 11.0808C23.0858 9.56195 22.032 8.03073 20.5396 7.90872C19.8254 7.89096 19.2305 8.4809 19.02 9.22296C18.7237 10.13 18.4442 11.2661 18.1472 12.15C18.0012 12.5886 17.8463 12.9657 17.716 13.1829C17.7122 13.1894 17.7088 13.1943 17.7052 13.2002C17.5256 12.9186 17.4283 12.4597 17.4316 11.9096C17.4273 10.8893 17.7258 9.76606 17.7384 9.01396C17.7377 8.81757 17.6998 8.08581 16.9217 8.01219C16.6069 8.02403 16.4445 8.1396 16.2698 8.25157C15.807 8.60008 14.52 9.1738 13.4341 9.57662C14.3411 8.85489 15.2708 8.25491 15.2708 8.25208C15.5066 8.10074 15.6183 7.81272 15.5449 7.5422C15.4724 7.27168 15.2307 7.07812 14.9514 7.06628C14.938 7.08095 12.2351 6.91416 10.7521 6.38702C10.8463 6.3672 10.9456 6.3479 11.0545 6.33117C11.6753 6.21303 12.481 6.11599 13.3146 6.04032ZM32.3495 27.3524C26.5461 41.749 20.2709 47.5751 15.8621 47.4268C11.1865 47.6165 6.13522 40.9635 3.55821 28.4295C2.87355 25.1686 2.57575 22.4187 2.57575 20.115C2.69363 11.6754 6.1939 9.33982 10.4064 8.20395C10.5593 8.16689 10.9927 8.05183 11.6972 7.96792C12.1834 8.06908 12.6683 8.14243 13.1095 8.19649C12.4753 8.67498 11.76 9.26621 11.2341 9.85126C11.097 10.0278 10.9392 10.1609 10.9132 10.556C10.9719 11.2636 11.6437 11.3223 11.7994 11.3228C12.856 11.2767 15.0242 10.4106 16.3789 9.67546C16.2891 10.2651 16.1478 11.1017 16.1444 11.9096C16.1488 12.6604 16.2572 13.4604 16.7794 14.1129C16.9892 14.3713 17.2937 14.6166 17.7137 14.6212C18.8957 14.4071 18.9695 13.4684 19.3675 12.559C19.6877 11.6007 19.9685 10.4597 20.2434 9.62321C20.4367 9.13442 20.4907 9.21344 20.5396 9.19568C20.8176 9.07419 22.1409 10.2901 22.6847 11.6195C23.0559 12.4115 23.5673 12.96 24.3089 12.986C25.2159 12.9557 25.6272 12.1006 25.628 11.3166C25.6272 10.7779 25.4671 10.1735 25.1161 9.53981C24.8947 9.13931 24.6715 8.80908 24.4649 8.53547C24.7349 8.5486 25.0424 8.56044 25.3969 8.56765C25.5487 8.57073 25.6978 8.57228 25.8429 8.57228C26.1425 8.57202 26.4262 8.56559 26.6936 8.55272C27.3911 8.64795 28.0102 8.78566 28.1453 8.83018C31.9331 10.1684 34.5991 12.3446 34.6658 17.6129C34.6679 20.0929 34.0012 23.2997 32.3495 27.3524Z" fill="#FFB524" class="fill-path"/>
<path d="M22.5213 34.218C21.9649 34.218 21.5142 34.6687 21.5142 35.2242C21.5142 35.7806 21.9646 36.2313 22.5213 36.2313C23.077 36.2313 23.5267 35.7806 23.5275 35.2242C23.5267 34.6687 23.0768 34.218 22.5213 34.218ZM22.5213 35.7166C22.2493 35.7166 22.0292 35.4965 22.0292 35.2244C22.0292 34.9534 22.2493 34.7333 22.5213 34.7325C22.7916 34.7333 23.0119 34.9534 23.0127 35.2244C23.0117 35.4962 22.7916 35.7166 22.5213 35.7166Z" fill="#FFB524" class="fill-path"/>
<path d="M13.3189 33.1475C12.7632 33.1475 12.3127 33.598 12.3127 34.1537C12.3127 34.7101 12.7632 35.1606 13.3189 35.1606C13.8746 35.1606 14.3253 34.7101 14.3253 34.1537C14.325 33.598 13.8746 33.1475 13.3189 33.1475ZM13.3189 34.6458C13.0479 34.6458 12.8275 34.426 12.8268 34.1539C12.8275 33.8826 13.0476 33.6626 13.3189 33.6618C13.5902 33.6626 13.8102 33.8819 13.8102 34.1539C13.8102 34.426 13.5899 34.6458 13.3189 34.6458Z" fill="#FFB524" class="fill-path"/>
<path d="M13.041 15.9538C13.041 15.516 12.6869 15.161 12.249 15.161C11.811 15.161 11.4568 15.516 11.4568 15.9538C11.4568 16.3908 11.811 16.7458 12.249 16.7458C12.6869 16.746 13.041 16.3911 13.041 15.9538ZM12.249 16.2318C12.0956 16.2312 11.9718 16.1074 11.9711 15.954C11.9718 15.7999 12.0961 15.6763 12.249 15.6755C12.4024 15.6763 12.5262 15.7999 12.527 15.954C12.5262 16.1072 12.4024 16.2312 12.249 16.2318Z" fill="#FFB524" class="fill-path"/>
<path d="M7.2199 21.3703C6.72339 21.3703 6.32031 21.7734 6.32031 22.2699C6.32031 22.7672 6.72262 23.1695 7.2199 23.17C7.71718 23.1695 8.11948 22.7672 8.11948 22.2699C8.11948 21.7737 7.71718 21.3703 7.2199 21.3703ZM7.2199 22.6555C7.00806 22.6547 6.83535 22.4828 6.83535 22.2702C6.83535 22.0576 7.00781 21.8856 7.2199 21.8856C7.43199 21.8856 7.60444 22.0576 7.60444 22.2702C7.60444 22.4828 7.43199 22.6547 7.2199 22.6555Z" fill="#FFB524" class="fill-path"/>
<path d="M20.7013 17.5159C20.2048 17.5166 19.8025 17.9189 19.8025 18.4162C19.8025 18.9127 20.2048 19.3158 20.7013 19.3158C21.1986 19.3158 21.6009 18.9127 21.6009 18.4162C21.6009 17.9189 21.1986 17.5166 20.7013 17.5159ZM20.7013 18.8008C20.4892 18.8008 20.3173 18.6288 20.3168 18.4162C20.3173 18.2036 20.4892 18.0317 20.7013 18.0309C20.9139 18.0317 21.0858 18.2036 21.0866 18.4162C21.0858 18.6288 20.9139 18.8008 20.7013 18.8008Z" fill="#FFB524" class="fill-path"/>
<path d="M25.3028 23.0838C24.8647 23.0838 24.5105 23.4385 24.5098 23.8765C24.5098 24.3144 24.8647 24.6685 25.3028 24.6685C25.7406 24.6685 26.0948 24.3144 26.0948 23.8765C26.0948 23.4385 25.7406 23.0838 25.3028 23.0838ZM25.3028 24.1543C25.1494 24.1535 25.0248 24.0299 25.0248 23.8765C25.0248 23.7224 25.1494 23.5986 25.3028 23.5978C25.4554 23.5986 25.5797 23.7224 25.5797 23.8765C25.5797 24.0297 25.4552 24.1535 25.3028 24.1543Z" fill="#FFB524" class="fill-path"/>
<path d="M15.6092 24.8397C15.6092 24.3424 15.2069 23.9401 14.7096 23.9401C14.2131 23.9401 13.8101 24.3424 13.8101 24.8397C13.8101 25.337 14.2124 25.7393 14.7096 25.7393C15.2069 25.7393 15.6092 25.337 15.6092 24.8397ZM14.7096 25.225C14.4976 25.2242 14.3251 25.0523 14.3251 24.8397C14.3251 24.6271 14.4976 24.4551 14.7096 24.4551C14.9215 24.4551 15.0942 24.6271 15.0942 24.8397C15.0942 25.0523 14.9217 25.2242 14.7096 25.225Z" fill="#FFB524" class="fill-path"/>
<path d="M15.8873 40.8557C15.3308 40.8557 14.8804 41.3063 14.8804 41.8621C14.8804 42.4185 15.3308 42.869 15.8873 42.869C16.443 42.869 16.8934 42.4185 16.8934 41.8621C16.8934 41.3063 16.443 40.8557 15.8873 40.8557ZM15.8873 42.3542C15.6152 42.3542 15.3959 42.1341 15.3952 41.8623C15.3959 41.591 15.6152 41.371 15.8873 41.3702C16.1586 41.371 16.3779 41.591 16.3786 41.8623C16.3776 42.1339 16.1583 42.3542 15.8873 42.3542Z" fill="#FFB524" class="fill-path"/>
<path d="M30.5718 16.431C30.4354 16.4719 30.3577 16.6147 30.3983 16.7512C30.7257 17.8574 30.8912 19.0075 30.8912 20.1626C30.8912 22.1937 30.3808 24.2387 29.3477 26.0888C29.2787 26.2124 29.3232 26.3696 29.447 26.4391C29.5716 26.5081 29.7278 26.4638 29.7976 26.3398C30.8735 24.4111 31.4063 22.2794 31.4063 20.1624C31.4063 18.9583 31.2343 17.7586 30.892 16.6042C30.8513 16.468 30.7082 16.3903 30.5718 16.431Z" fill="#FFB524" class="fill-path"/>
<path d="M30.0119 15.0016C30.1393 14.9386 30.1913 14.7844 30.1282 14.657C29.7756 13.9427 29.3504 13.2581 28.8523 12.6141C28.7656 12.5013 28.6042 12.4805 28.4915 12.5672C28.3787 12.654 28.3581 12.8156 28.4454 12.9281C28.9218 13.5451 29.3295 14.2001 29.6672 14.8843C29.7303 15.0119 29.8845 15.0647 30.0119 15.0016Z" fill="#FFB524" class="fill-path"/>
</svg>
