<svg style="height:1em;width:0.8039em" viewBox="0 0 41 51" fill="none" xmlns="http://www.w3.org/2000/svg">
<path d="M41 22.3468C40.9988 17.7024 37.2284 13.941 32.5785 13.9404C30.3432 13.9399 28.3073 14.8142 26.7998 16.2352C26.1878 15.5467 25.4643 14.9601 24.6576 14.5018C25.5321 14.5598 26.5081 14.617 27.5488 14.6651C27.765 14.6747 27.9661 14.5482 28.0512 14.3489C28.1361 14.1496 28.0876 13.9164 27.9301 13.7681C27.689 13.5399 27.4746 13.3309 27.2882 13.1463C28.3888 13.0594 30.1274 12.8522 31.8748 12.3577C32.0537 12.3068 32.1912 12.1662 32.237 11.9858C32.2825 11.8063 32.2305 11.617 32.0976 11.4866C31.4282 10.8812 30.5019 10.6351 29.8254 10.4989C31.6497 9.2672 33.6047 6.78906 33.6544 6.7693L33.655 6.76888L33.6563 6.76701C33.7474 6.65655 33.7846 6.51988 33.7724 6.388C33.8102 6.31436 33.8331 6.23199 33.8319 6.14379C33.8275 5.8563 33.591 5.62686 33.3043 5.63102C33.245 5.68073 29.6172 5.6098 27.4856 6.52425C27.6117 6.11321 27.7598 5.58463 27.7689 5.01362C27.7696 4.75838 27.7367 4.48899 27.6539 4.21711C27.6 4.03946 27.4546 3.90342 27.2732 3.86202C27.0922 3.82021 26.9019 3.87825 26.7754 4.01471C25.4759 5.41301 24.4548 6.49243 23.9037 7.07197C23.7487 6.78116 23.537 6.32871 23.274 5.63934C23.1948 5.43215 22.9913 5.29735 22.7696 5.30526C22.5487 5.31233 22.3546 5.46148 22.2905 5.67304C21.702 7.60387 21.1225 9.55364 20.6934 11.0092C20.4982 7.55728 19.7165 2.52196 16.0495 0.152619C15.5599 -0.146721 14.9196 0.00783721 14.6202 0.497515C14.3203 0.988025 14.4746 1.62831 14.9651 1.92765C16.1644 2.60038 17.0012 3.95501 17.5737 5.5345C17.176 5.36101 16.7458 5.22663 16.3023 5.13302C15.8869 4.59799 15.3136 4.05964 14.5591 3.52773C13.1483 2.53007 11.8392 2.08824 10.6787 2.08762C7.96777 2.09594 6.3916 4.47568 6.38724 6.77596C6.38349 8.21316 6.99694 9.69821 8.34927 10.6222C8.58642 10.7845 8.90968 10.7233 9.07214 10.487C9.23419 10.2497 9.17386 9.92579 8.93672 9.76416C7.90203 9.05502 7.43066 7.93359 7.42775 6.77596C7.44252 4.89317 8.66484 3.13125 10.6789 3.12771C11.5698 3.12709 12.6736 3.46907 13.9594 4.37687C14.2537 4.5853 14.5096 4.78916 14.7344 4.98803C13.1936 5.08663 11.6626 6.01357 11.6593 8.1131C11.6618 9.61376 12.7522 10.4186 13.8589 10.4211C15.3703 10.4096 17.1231 9.2466 17.161 7.34905C17.1599 7.05054 17.1119 6.74642 17.0143 6.43813C17.4058 6.60309 17.7538 6.80029 18.0203 7.00166C18.5555 9.12491 18.7109 11.3925 18.6801 12.8776C18.6801 13.152 18.6762 13.3953 18.6708 13.6061C17.0387 13.9672 15.5854 14.8003 14.4611 15.9556C12.9326 14.3843 10.7885 13.4045 8.42208 13.4045C3.7716 13.4051 0.000624058 17.1663 0 21.8116C0.000416039 25.0819 1.87134 27.9122 4.60077 29.3022C4.12835 30.3533 3.86479 31.5197 3.86521 32.7424C3.86583 37.1426 7.24989 40.7474 11.5592 41.1162C11.5488 41.288 11.5415 41.4605 11.5415 41.6346C11.5426 46.2797 15.3129 50.0411 19.963 50.0417C24.6131 50.0411 28.3834 46.2797 28.3845 41.6346C28.3845 41.4418 28.3763 41.251 28.3632 41.0613C32.4379 40.4736 35.5701 36.9758 35.5705 32.7424C35.5709 31.906 35.4451 31.0961 35.216 30.3308C38.5741 29.2256 40.999 26.0714 41 22.3468ZM16.1203 7.34905C16.1178 8.48567 14.8759 9.37911 13.8585 9.38098C13.1566 9.32711 12.7458 9.13074 12.6992 8.11331C12.7387 6.49347 13.6411 6.07951 15.0017 6.01856C15.2268 6.01169 15.4579 6.02958 15.6894 6.06307C16.0046 6.55171 16.1221 6.98689 16.1203 7.34905ZM22.8724 7.33969C23.2091 8.02324 23.4093 8.2244 23.486 8.29637C23.6951 8.47922 24.0111 8.46549 24.2033 8.26475C24.2043 8.26371 25.1575 7.27063 26.6356 5.68968C26.5083 6.19246 26.293 6.7071 26.2681 7.25773C26.2681 7.40563 26.2901 7.56726 26.3586 7.72723C26.428 7.89073 26.5747 8.00577 26.7496 8.03551C26.924 8.06547 27.1006 8.00514 27.2204 7.87388C27.549 7.44869 29.1529 7.01996 30.5811 6.86915C31.2289 6.78906 31.8467 6.74143 32.332 6.71293C32.0294 7.05553 31.6175 7.50715 31.1565 7.97332C30.2248 8.93395 29.0145 9.93868 28.3994 10.086C28.2301 10.1328 28.0953 10.2619 28.0418 10.4292C27.9886 10.5962 28.0233 10.7801 28.1348 10.916C28.7123 11.4425 29.5333 11.5209 30.2442 11.6844C28.0356 12.1387 26.1125 12.1645 26.1089 12.1693C25.9036 12.1724 25.7195 12.2949 25.6386 12.4844C25.5573 12.6731 25.5943 12.8911 25.7339 13.0419C25.7374 13.0457 25.9146 13.2381 26.2279 13.5563C24.1727 13.4411 22.4852 13.3017 21.5286 13.2156C22.2668 12.5346 24.5405 10.5721 27.6593 9.13386C27.7641 9.08601 27.8097 8.96266 27.761 8.85844C27.7132 8.7536 27.5898 8.70804 27.485 8.75651C24.2576 10.2457 21.9257 12.2799 21.209 12.9452C21.5269 11.8577 22.1678 9.67595 22.8724 7.33969ZM19.4454 15.5752C19.4914 15.5852 19.5368 15.5966 19.585 15.6006C19.7743 15.6155 19.9538 15.575 20.1138 15.4984C20.2413 15.4905 20.3697 15.4853 20.4995 15.4851C24.0034 15.4909 26.8347 18.3194 26.8405 21.8118C26.8347 25.3036 24.0032 28.1321 20.4995 28.1379C16.9962 28.1321 14.1649 25.3036 14.1584 21.8118C14.1645 18.6774 16.4458 16.0796 19.4454 15.5752ZM2.07978 21.8116C2.08623 18.3192 4.91779 15.4907 8.42146 15.4849C10.3248 15.4849 12.0231 16.3188 13.1884 17.6423C12.4837 18.8712 12.0789 20.2935 12.0786 21.8116C12.0789 23.3291 12.4835 24.7511 13.1878 25.9797C12.0244 27.3029 10.3246 28.1379 8.42146 28.1379C4.91779 28.1319 2.08623 25.3034 2.07978 21.8116ZM5.94561 32.7424C5.94561 31.7608 6.1711 30.838 6.56863 30.0113C7.16502 30.1451 7.78471 30.2181 8.42146 30.2181C10.7885 30.2181 12.9305 29.2381 14.4601 27.6665C15.4049 28.6375 16.5819 29.3812 17.9026 29.8085C18.3644 30.6859 18.6271 31.6794 18.6277 32.7424C18.6213 36.2348 15.7897 39.0626 12.2867 39.0693C8.78362 39.0626 5.95144 36.2348 5.94561 32.7424ZM19.9632 47.9613C16.46 47.9546 13.628 45.127 13.6222 41.6346C13.6222 41.4328 13.6323 41.2342 13.6504 41.038C16.2829 40.6097 18.5054 38.9645 19.7184 36.6977C21.007 39.1057 23.4342 40.814 26.2826 41.1052C26.297 41.2795 26.3045 41.4561 26.3045 41.6346C26.2976 45.127 23.4665 47.9546 19.9632 47.9613ZM33.4911 32.7424C33.4847 36.2348 30.6531 39.0626 27.1501 39.0693C23.6462 39.0626 20.815 36.235 20.8084 32.7424C20.8088 31.825 21.0043 30.9593 21.354 30.1752C23.2528 29.9841 24.964 29.162 26.2778 27.924C27.8197 29.6587 30.0736 30.7541 32.5785 30.7541C32.7755 30.7541 32.9707 30.745 33.1641 30.7317C33.3759 31.3626 33.4907 32.0374 33.4911 32.7424ZM32.5783 28.6737C30.5703 28.6737 28.7866 27.7458 27.6227 26.294C28.4437 24.9966 28.9209 23.4604 28.9211 21.8116C28.9209 20.4303 28.5854 19.1286 27.9944 17.979C29.151 16.7721 30.7723 16.0208 32.5783 16.0208C36.0816 16.0268 38.9134 18.855 38.9194 22.3468C38.9134 25.8393 36.0816 28.6671 32.5783 28.6737Z" fill="#FFB524" class="fill-path"/>
<path d="M20.4998 27.0424C22.2675 27.0424 23.8312 26.1596 24.77 24.8116C24.8351 24.717 24.8124 24.5876 24.718 24.5216C24.624 24.4559 24.4939 24.4792 24.4286 24.5732C23.5633 25.8147 22.1273 26.6262 20.4996 26.6262C20.3845 26.6262 20.2917 26.7196 20.2917 26.8346C20.2917 26.9496 20.3847 27.0424 20.4998 27.0424Z" fill="#FFB524" class="fill-path"/>
<path d="M25.1892 23.5729C25.298 23.6076 25.4156 23.5477 25.4509 23.4381C25.6126 22.9351 25.7006 22.3984 25.7006 21.8421C25.7006 21.7271 25.6072 21.6339 25.4921 21.6339C25.3771 21.6339 25.2843 21.7273 25.2843 21.8421C25.2843 22.3549 25.2036 22.8483 25.0547 23.3105C25.0197 23.42 25.0794 23.5375 25.1892 23.5729Z" fill="#FFB524" class="fill-path"/>
</svg>
