<svg style="height:1em;width:0.94em" viewBox="0 0 47 50" fill="none" xmlns="http://www.w3.org/2000/svg">
<path d="M46.054 21.7945C46.0559 20.4332 45.7693 18.9247 45.0408 17.3913C42.626 12.6036 43.8171 9.90242 40.3574 7.16991C39.2056 6.35794 38.0625 5.56995 37.1475 4.94417C36.4338 4.4566 34.8978 3.12282 34.3785 2.8384C33.372 2.26477 31.8262 1.76824 29.0597 1.4496C28.7344 1.4128 28.4122 1.39521 28.0942 1.39521C23.8353 1.49055 20.3833 4.23233 18.6483 5.88188C17.8869 3.40788 15.8908 0.0419106 10.6434 0C10.2012 0 9.84292 0.35736 9.84292 0.799501C9.84292 1.24132 10.2012 1.59964 10.6434 1.59964C14.4915 1.56157 16.1733 3.77995 16.9162 5.70976C16.0844 5.57091 15.0274 5.48965 13.6309 5.48645C12.7431 5.48645 11.7196 5.52132 10.5343 5.60258C2.79809 6.10583 1.73145 12.4884 1.68091 14.1645C1.17894 15.1352 0.0169583 17.6796 2.14786e-06 20.8277C-0.000957637 22.4193 0.319611 24.1795 1.2378 25.8745C2.16624 27.5922 2.72355 28.5878 3.06875 29.1775C3.09307 29.2191 3.11418 29.2539 3.13626 29.2914C3.00541 29.8813 2.87072 30.7342 2.86912 31.765C2.8672 33.3778 3.21336 35.4516 4.48988 37.4815C6.85223 41.011 11.3274 42.3028 13.4216 42.7693C13.9578 44.7237 15.7197 48.3901 21.1409 49.7025C21.9727 49.9059 22.7783 50 23.5467 50C28.0257 49.9155 30.7755 47.0394 32.0331 45.3386C32.7792 45.5904 33.7838 45.8269 34.957 45.8345C37.565 45.9081 40.9636 44.3481 42.8262 39.8221C44.2941 36.4069 44.7612 33.6625 44.7612 31.5772C44.7634 29.8999 44.4582 28.6627 44.1639 27.8616C44.9093 26.7444 46.0329 24.613 46.054 21.7945ZM10.7518 8.79355C11.8745 8.71709 12.8266 8.68573 13.6309 8.68573C15.9036 8.68029 16.9879 8.95671 17.3251 9.10228L17.3484 9.09812C17.5625 9.39182 17.8744 9.61097 18.2385 9.70599C18.8262 9.85827 19.4513 9.66471 19.8493 9.20594C19.8503 9.2021 20.8568 8.04268 22.4548 6.86086C24.0509 5.66369 26.173 4.57498 28.0942 4.59449C28.297 4.59449 28.4979 4.60537 28.6976 4.62776C30.0982 4.78389 31.0826 4.99728 31.7474 5.19628C32.2747 5.35432 33.1884 6.12567 33.4188 6.28179L33.4216 6.28371L33.4271 6.28755C33.4319 6.28979 35.0949 7.40474 37.0839 8.78523C37.5388 10.3974 37.5865 13.0694 37.5183 15.1908C37.5186 15.7136 37.5071 16.2024 37.4902 16.6408C37.0195 16.1452 36.3886 15.5002 35.5178 14.6252C33.0751 12.26 28.243 10.5276 28.1985 10.4956C27.9758 10.4133 27.7253 10.4348 27.5199 10.5535C27.3142 10.6725 27.1715 10.8798 27.1322 11.1137C27.1293 11.1338 26.866 12.6967 26.7998 14.5279C26.7905 14.8012 26.7857 15.0683 26.7857 15.3281C26.7834 18.7443 27.59 21.0129 28.2087 22.2501C28.0257 22.2619 27.8286 22.2705 27.6121 22.2705C26.5096 22.2715 25.091 22.0578 23.8836 21.2493C21.527 19.7399 18.4112 13.5598 18.3981 13.5627C18.2359 13.2332 17.8706 13.0572 17.5119 13.1353C17.153 13.2127 16.8929 13.525 16.882 13.8916C16.8855 13.897 16.7927 16.5384 15.6717 19.0281C14.9323 20.7995 11.5721 23.3279 10.176 24.3305C9.69511 23.596 8.88569 22.0872 8.218 19.4772C7.98061 18.5462 7.88368 17.7403 7.88368 17.0423C7.89455 14.846 8.79803 13.6763 9.59657 12.8941L9.59849 12.8922C9.66472 12.7863 9.8426 12.7549 9.89699 12.2363C9.76613 11.4035 9.0479 11.4035 9.0223 11.4029C8.35781 11.4467 6.6206 12.076 5.17868 12.6333C5.62722 11.0695 6.88582 9.07445 10.7518 8.79355ZM8.48834 11.7414L8.48802 11.7407L8.48994 11.7398C8.48962 11.7401 8.48898 11.7407 8.48834 11.7414ZM41.9628 25.2971C41.5117 26.1749 41.1009 26.5992 41.1162 26.6152C40.6338 27.1622 40.5813 27.9614 40.9883 28.5667C40.9883 28.5667 41.0577 28.6397 41.2189 29.1304C41.3789 29.6222 41.5612 30.4245 41.5612 31.5776C41.5603 33.1846 41.2068 35.4845 39.8861 38.5597C38.2615 42.1477 36.5224 42.5613 34.957 42.6349C33.46 42.6506 32.2638 41.9148 32.2344 41.9618C31.8575 41.7462 31.4182 41.6927 31.0014 41.8108C30.5839 41.9295 30.2387 42.2065 30.0323 42.5873C30.0336 42.5908 29.468 43.6325 28.3229 44.7154C27.1654 45.8105 25.5757 46.8023 23.5467 46.8007C23.0374 46.8007 22.4919 46.7393 21.9007 46.5953C19.0629 45.8832 17.8178 44.5414 17.1178 43.3855C16.7754 42.8045 16.5912 42.259 16.4965 41.8741C16.4014 41.4893 16.4152 41.3491 16.3995 41.3501C16.3618 40.5922 15.7981 39.9667 15.0491 39.8499C15.0456 39.8509 13.5554 39.6161 11.7724 38.9465C9.97729 38.2897 8.03308 37.1578 7.19871 35.7801C6.31187 34.3683 6.07064 32.9405 6.06872 31.7654C6.0668 30.8888 6.20853 30.222 6.30483 29.8442C6.31475 29.8231 6.32978 29.8004 6.33682 29.7799C6.51886 29.3928 6.50255 29.1893 6.51086 29.0495C6.44176 28.3114 6.38289 28.4912 6.37233 28.3677C6.27828 28.1287 6.13047 27.9227 5.94747 27.7595C5.67745 27.3088 5.09614 26.2882 4.05157 24.3533C3.42899 23.1986 3.20057 22.0018 3.19961 20.8277C3.17849 17.9221 4.70455 15.4039 4.66008 15.3716L4.88211 14.478V14.4656C5.27402 14.313 5.72128 14.1405 6.17974 13.9678C6.46639 13.8545 6.76777 13.7428 7.06306 13.6373C6.60748 14.5273 6.27828 15.6496 6.28403 17.0423C6.28403 17.8882 6.40081 18.8281 6.66891 19.8736C7.75091 24.113 9.33135 25.888 9.41261 25.9743C9.67847 26.2642 10.1126 26.3186 10.4412 26.103C10.4828 26.0348 15.6838 22.7619 17.1315 19.6829C17.6364 18.5494 17.9505 17.4182 18.1479 16.4606C19.2933 18.4599 21.1252 21.2928 22.9955 22.5805C24.5795 23.6331 26.3167 23.8689 27.6117 23.8708C28.8236 23.8699 29.6682 23.6609 29.7114 23.6507C29.9786 23.5845 30.1923 23.3864 30.278 23.1247C30.3647 22.8634 30.3103 22.5777 30.1353 22.3649C30.1344 22.3639 29.7457 21.909 29.2971 20.7633C28.8486 19.6158 28.3853 17.8328 28.3853 15.3284C28.3853 15.0872 28.3892 14.8396 28.3981 14.5852C28.4282 13.7406 28.5047 12.9513 28.5744 12.3662C30.0659 12.9945 32.9705 14.3421 34.3968 15.767C35.9548 17.2966 36.7396 18.1623 37.1174 18.6211C37.3052 18.8495 37.3916 18.9765 37.4169 19.0181L37.4188 19.0169C37.5407 19.3163 37.8328 19.5207 38.1694 19.5156C38.5757 19.5089 38.9097 19.2024 38.9522 18.799C38.9542 18.7804 39.1183 17.2131 39.1183 15.1915C39.0709 13.6773 39.1727 11.8124 38.9855 10.1283C40.0947 11.2119 39.8276 13.5758 42.1502 18.7603C42.6704 19.8647 42.8538 20.8696 42.8547 21.7948C42.8573 23.1874 42.418 24.4166 41.9628 25.2971Z" fill="#FFB524" class="fill-path"/>
<path d="M38.4667 30.3389C38.4945 30.513 38.6574 30.6326 38.8327 30.6061C39.0067 30.5782 39.1264 30.4144 39.0995 30.2401C39.0214 29.7365 38.9063 29.2361 38.7533 28.7425C38.7018 28.5732 38.522 28.4792 38.3538 28.5307C38.1852 28.5832 38.0905 28.762 38.142 28.9306C38.2853 29.3948 38.3931 29.8657 38.4667 30.3389Z" fill="#FFB524" class="fill-path"/>
<path d="M38.9033 32.3007C38.7267 32.2876 38.5738 32.4204 38.5619 32.5973C38.3492 35.587 36.811 38.4504 34.1284 40.25C33.9818 40.3485 33.9422 40.5475 34.041 40.694C34.1396 40.8405 34.3386 40.8799 34.4851 40.7814C37.3363 38.8675 38.975 35.8199 39.1995 32.6427C39.2117 32.4661 39.0792 32.3125 38.9033 32.3007Z" fill="#FFB524" class="fill-path"/>
</svg>
