<svg style="height:1em;width:0.8958em" viewBox="0 0 43 48" fill="none" xmlns="http://www.w3.org/2000/svg">
<path d="M36.9958 4.21483C35.9931 4.01673 35.0834 3.92513 34.2561 3.92513C31.0843 3.89106 29.1072 5.38377 28.1704 6.94958C27.1578 5.45304 25.1671 4.042 22.0463 4.07111C22.0355 4.07111 22.0247 4.07133 22.0139 4.07133C22.2 1.38892 23.5456 1.21068 24.6714 1.12833C25.2944 1.12698 25.7574 1.27702 25.7612 1.26844C26.0595 1.35869 26.3744 1.1906 26.4647 0.892331C26.5549 0.594286 26.3866 0.279319 26.0886 0.18907C26.055 0.180046 25.4677 0.00135373 24.6714 0C23.931 0.000676863 22.9743 0.157709 22.1819 0.844951C21.4401 1.48684 20.9331 2.55381 20.8722 4.12729C17.4678 4.43752 15.56 6.07552 14.5151 7.59305C13.5628 5.92301 11.7916 4.08261 8.58014 4.01132C7.73046 4.01132 6.80767 4.15165 5.80952 4.45376C1.36004 5.9133 0.021434 11.1315 0 16.9854C0.00451242 23.2119 1.60417 30.5838 3.98672 36.5035C6.44193 42.3484 9.34793 47.0452 13.4675 47.2548C14.2949 47.2575 15.129 47.0086 15.8817 46.5371L16.0369 46.4213C16.4949 45.9843 16.8501 45.473 17.1269 44.9552C17.7331 45.9026 18.6584 46.8708 20.18 46.9195C22.0865 46.9637 23.486 46.2128 24.1487 45.1062C24.2389 44.9595 24.3174 44.8129 24.3896 44.6671C25.1128 45.763 26.1732 46.7735 27.8238 47.1068L27.8236 47.1079C27.8288 47.109 27.8344 47.1092 27.8396 47.1104C27.8468 47.1119 27.8538 47.114 27.8613 47.1151L27.8615 47.1137C28.144 47.1695 28.4294 47.1988 28.7128 47.1988C32.9632 46.9851 36.0619 42.0637 38.6951 35.9746C41.251 29.8124 42.9944 22.1943 43 15.9343C42.9986 10.2755 41.5833 5.22922 36.9958 4.21483ZM36.6118 35.1089C34.2389 41.0617 30.7582 45.1563 28.713 44.9426C28.5672 44.9426 28.4253 44.9284 28.2816 44.8984L28.2439 44.8914C26.795 44.7089 25.8564 42.9201 25.2745 41.3568C25.1069 40.9254 24.6884 40.6382 24.2256 40.6375C23.7624 40.6362 23.343 40.9214 23.1733 41.3521C22.7525 42.4671 22.572 43.4235 22.2474 43.8917C21.931 44.3179 21.6881 44.6193 20.1805 44.6633C19.8323 44.7231 19.2071 44.1789 18.7502 43.2617C18.3028 42.3992 18.0968 41.5028 18.0858 41.5035C17.961 40.9807 17.4818 40.6168 16.9439 40.6382C16.406 40.6599 15.9573 41.0592 15.8743 41.5912C15.8743 41.5926 15.7833 42.1717 15.5469 42.8922C15.3348 43.5737 14.9576 44.3278 14.5995 44.6746C14.1927 44.9069 13.8346 44.997 13.4678 44.9985C11.5471 45.2093 8.28323 41.3679 6.07891 35.6599C3.80172 30.0252 2.25125 22.8268 2.25644 16.9854C2.23478 11.3314 3.76065 7.3187 6.46382 6.61318C7.27899 6.36635 7.97932 6.26775 8.5806 6.26775C12.3909 6.13667 13.3141 10.7008 13.3259 10.7039C13.4265 11.2463 13.9028 11.6346 14.4542 11.6256C15.0056 11.6159 15.4679 11.2111 15.5505 10.6662C15.5505 10.6656 15.5758 10.4702 15.722 10.0699C16.2242 8.85788 17.3958 6.44374 21.9004 6.328L21.8875 5.54148H21.8877L21.9008 6.328C21.9489 6.32732 21.9978 6.32732 22.0466 6.32732C24.7035 6.35868 25.7682 7.39135 26.4405 8.43439C26.7627 8.96325 26.9439 9.51331 27.038 9.92327C27.133 10.333 27.1289 10.5449 27.1386 10.5455C27.1402 10.5821 27.149 10.6164 27.1537 10.6522C27.1589 10.6897 27.1607 10.7281 27.17 10.7648C27.2769 11.2064 27.6424 11.5421 28.0916 11.612C28.1647 11.6238 28.239 11.6281 28.3134 11.6251C28.8601 11.6017 29.2987 11.1933 29.3799 10.6721C29.3892 10.6132 29.3905 10.5534 29.3905 10.4936H29.3937C29.497 10.382 29.2527 6.1854 34.2561 6.18157C34.9167 6.18157 35.6804 6.25489 36.5578 6.4284C39.2488 6.85121 40.7465 10.4424 40.744 15.9347C40.7499 21.7794 39.0618 29.2297 36.6118 35.1089Z" fill="#FFB524" class="fill-path"/>
<path d="M36.8431 26.5336C36.719 26.5226 36.6094 26.6142 36.5983 26.7383C36.1229 31.9803 33.9944 36.0165 30.2169 40.7782C30.1395 40.8757 30.1557 41.018 30.2532 41.0952C30.3513 41.1724 30.493 41.1563 30.5702 41.0589C34.3723 36.2712 36.5658 32.1279 37.0478 26.7784C37.0588 26.6543 36.9672 26.5444 36.8431 26.5336Z" fill="#FFB524" class="fill-path"/>
<path d="M37.5979 18.8703C37.4744 18.8872 37.388 19.0009 37.4043 19.1243C37.4934 19.7822 37.5322 20.3508 37.5322 20.8605C37.5322 21.7952 37.4018 22.5314 37.1978 23.2715C37.1649 23.3915 37.2348 23.5156 37.3549 23.5487C37.4749 23.5824 37.5997 23.5117 37.6328 23.3915C37.8445 22.6253 37.9837 21.8372 37.9837 20.8605C37.9837 20.3271 37.9426 19.738 37.8517 19.0639C37.8348 18.9404 37.7211 18.8533 37.5979 18.8703Z" fill="#FFB524" class="fill-path"/>
</svg>
