<svg style="height:1em;width:0.8em" viewBox="0 0 40 50" fill="none" xmlns="http://www.w3.org/2000/svg">
<path d="M34.2463 25.2749C31.4423 20.2524 28.1627 16.8174 25.4623 14.631C23.1401 12.8406 21.6171 11.9024 20.4466 11.5411L16.7478 6.01406C17.9328 3.96364 19.5359 2.40739 21.4883 2.45026C22.1639 2.45026 22.7107 1.90146 22.7107 1.22525C22.7104 0.548069 22.1637 0 21.4881 0C17.5923 0.0494904 15.3075 3.25363 13.9768 6.03317C12.8484 8.4043 12.3082 10.7056 12.1523 11.435C12.1271 11.4521 12.1 11.4698 12.0694 11.4872C10.0466 13.2208 4.13239 19.8373 1.81677 28.0351C0.668241 32.1685 0.00219977 36.7023 0 40.5611C0.0928792 45.0453 0.643066 49.0685 4.10941 49.9522C4.30348 49.9846 4.49853 50 4.69186 50C7.69651 49.8265 9.547 46.9566 11.3215 43.4584C13.0454 39.8875 14.4456 35.3553 15.2823 31.1586C15.9733 27.6855 16.2243 24.559 16.2243 21.8779C16.2243 18.7605 15.885 16.2483 15.4966 14.4759C15.3016 13.5878 15.096 12.8883 14.9012 12.367C14.8022 12.1048 14.7103 11.8909 14.5979 11.6881C14.737 11.0829 15.0379 9.91547 15.5365 8.60275L18.3136 12.7514C18.153 13.5322 18.0437 14.8327 18.0396 16.6187C18.0445 20.5934 18.6396 26.7202 21.186 32.2281C22.9622 36.0542 25.346 39.8765 27.8036 42.8018C30.3023 45.6909 32.6925 47.8484 35.3523 47.9464C35.9667 47.9486 36.5978 47.7933 37.1495 47.4647C38.9122 46.3573 39.3441 44.2866 39.3617 42.0294C39.3419 37.2601 37.179 30.5603 34.2463 25.2749ZM12.8848 30.6796C12.0897 34.6879 10.7224 39.0842 9.12171 42.39C7.57307 45.7683 5.54293 47.7242 4.69162 47.5505C4.63198 47.5505 4.57283 47.5456 4.51344 47.5358C4.08277 47.478 3.56436 47.0509 3.10974 45.7757C2.67663 44.5409 2.44077 42.6901 2.44419 40.5608C2.44199 36.984 3.07894 32.6105 4.17076 28.6934C5.34911 24.4438 7.72412 20.4814 9.87354 17.6152C10.9468 16.1819 11.9628 15.0196 12.7269 14.2339C12.7809 14.1783 12.8305 14.129 12.8821 14.0771C13.2927 15.5789 13.7889 18.3168 13.7796 21.8777C13.7798 24.4059 13.5428 27.3719 12.8848 30.6796ZM35.9076 45.355C35.7436 45.4488 35.5862 45.4937 35.3525 45.4959C34.3267 45.5939 31.9174 43.9747 29.6729 41.2226C27.3866 38.5072 25.084 34.8248 23.4029 31.1944C21.0787 26.2 20.4791 20.3447 20.484 16.6185C20.484 15.6784 20.5217 14.8755 20.5742 14.2645C22.8302 15.4665 28.0761 19.1643 32.1137 26.4717C34.8776 31.3899 36.9378 37.9836 36.918 42.0294C36.9349 44.0036 36.3952 45.1313 35.9076 45.355Z" fill="#FFB524" class="fill-path"/>
<path d="M10.1865 21.1848C8.77597 21.1875 7.62744 22.3243 7.62671 23.738C7.62744 25.1516 8.77572 26.2892 10.1865 26.2919C11.5973 26.2892 12.7458 25.1516 12.7466 23.738C12.7456 22.3243 11.5973 21.1875 10.1865 21.1848ZM10.1865 25.0669C9.44494 25.0669 8.85027 24.4688 8.8488 23.738C8.85027 23.0081 9.4447 22.4098 10.1865 22.4098C10.9283 22.4098 11.5227 23.0079 11.5242 23.738C11.5227 24.4686 10.9281 25.0669 10.1865 25.0669Z" fill="#FFB524" class="fill-path"/>
<path d="M8.14039 27.9773C6.24541 27.9807 4.70435 29.5086 4.70361 31.4044C4.70435 33.2992 6.24541 34.8273 8.14039 34.8305C10.0361 34.8271 11.5762 33.2992 11.5769 31.4044C11.5759 29.5086 10.0361 27.9807 8.14039 27.9773ZM8.14039 33.6057C6.91438 33.6057 5.92815 32.6169 5.92595 31.4046C5.92815 30.1914 6.91438 29.2025 8.14039 29.2025C9.36615 29.2025 10.3526 30.1914 10.3548 31.4046C10.3524 32.6169 9.3659 33.6057 8.14039 33.6057Z" fill="#FFB524" class="fill-path"/>
<path d="M6.09422 37.2932C4.68368 37.2962 3.53589 38.4337 3.53442 39.8474C3.53589 41.2608 4.68344 42.3976 6.09422 42.4005C7.50501 42.3976 8.65353 41.2608 8.65427 39.8474C8.65329 38.4337 7.50501 37.2962 6.09422 37.2932ZM6.09422 41.1753C5.35266 41.1753 4.75798 40.5775 4.75676 39.8474C4.75798 39.1168 5.35266 38.5185 6.09422 38.5185C6.83579 38.5185 7.4307 39.1165 7.43193 39.8474C7.43046 40.5772 6.83579 41.1753 6.09422 41.1753Z" fill="#FFB524" class="fill-path"/>
<path d="M27.7504 22.9622C27.7496 21.3342 26.4268 20.0232 24.801 20.0203C23.1748 20.0232 21.8525 21.3342 21.8521 22.9622C21.8528 24.59 23.1748 25.9006 24.801 25.9032C26.4268 25.9006 27.7496 24.5898 27.7504 22.9622ZM24.801 24.6782C23.8441 24.6782 23.0756 23.9065 23.0737 22.9622C23.0759 22.017 23.8441 21.2453 24.801 21.2453C25.7579 21.2453 26.5271 22.0168 26.5283 22.9622C26.5268 23.9062 25.7579 24.6782 24.801 24.6782Z" fill="#FFB524" class="fill-path"/>
<path d="M32.0371 30.3366C32.0364 28.3871 30.4525 26.8167 28.5035 26.813C26.5543 26.8167 24.9705 28.3871 24.9697 30.3366C24.9705 32.2861 26.5543 33.8568 28.5035 33.8605C30.4525 33.8568 32.0364 32.2861 32.0371 30.3366ZM28.5035 32.6355C27.2235 32.6355 26.194 31.6035 26.1913 30.3366C26.194 29.0707 27.2235 28.038 28.5035 28.038C29.7833 28.038 30.8126 29.0707 30.8155 30.3366C30.8126 31.6035 29.7836 32.6355 28.5035 32.6355Z" fill="#FFB524" class="fill-path"/>
<path d="M29.8411 38.1975C29.8416 39.7716 31.1208 41.0385 32.6927 41.041C34.2655 41.0383 35.5438 39.7714 35.5446 38.1975C35.5438 36.6231 34.2655 35.3557 32.6927 35.353C31.1208 35.356 29.8416 36.6231 29.8411 38.1975ZM32.6927 36.578C33.5953 36.578 34.3208 37.3059 34.3222 38.1975C34.3208 39.0883 33.5953 39.8167 32.6927 39.8167C31.7901 39.8167 31.0646 39.0881 31.0632 38.1975C31.0646 37.3059 31.7898 36.578 32.6927 36.578Z" fill="#FFB524" class="fill-path"/>
<path d="M29.8001 30.1231C29.8121 30.1944 29.8177 30.2664 29.8177 30.3382C29.8177 30.6224 29.7256 30.9073 29.5342 31.1487C29.3604 31.3667 29.1324 31.514 28.8833 31.5889C28.754 31.6277 28.6807 31.7646 28.7193 31.8935C28.7579 32.0233 28.894 32.0973 29.0233 32.0586C29.3641 31.9572 29.6784 31.7526 29.9162 31.4542C30.1785 31.1247 30.3068 30.7292 30.3068 30.3382C30.3068 30.239 30.2985 30.1407 30.2821 30.0427C30.2601 29.9095 30.1345 29.8193 30.0015 29.8418C29.8676 29.8636 29.7783 29.9898 29.8001 30.1231Z" fill="#FFB524" class="fill-path"/>
<path d="M29.6262 29.657C29.6973 29.7726 29.8479 29.8084 29.9625 29.7381C30.0781 29.6675 30.1138 29.5166 30.0434 29.401C29.9352 29.2246 29.7944 29.0631 29.6228 28.9274C29.5162 28.8436 29.363 28.8617 29.2794 28.9685C29.1963 29.0751 29.2146 29.2287 29.3202 29.3125C29.4463 29.4122 29.5482 29.5284 29.6262 29.657Z" fill="#FFB524" class="fill-path"/>
<path d="M9.35759 29.8982C9.25103 29.8142 9.09778 29.8325 9.01419 29.9391C8.93059 30.0457 8.94868 30.1996 9.055 30.2831C9.18112 30.3826 9.28305 30.499 9.36102 30.6273C9.43141 30.743 9.58197 30.779 9.69734 30.7084C9.81221 30.6379 9.84863 30.4869 9.77775 30.3713C9.66996 30.1944 9.52918 30.0337 9.35759 29.8982Z" fill="#FFB524" class="fill-path"/>
<path d="M9.53474 31.0936C9.54623 31.1646 9.55234 31.2366 9.55234 31.3084C9.55161 31.5929 9.4602 31.8778 9.26808 32.1191C9.0943 32.3372 8.86699 32.4844 8.61818 32.5592C8.48863 32.5979 8.41531 32.7341 8.45344 32.8639C8.49206 32.9935 8.62869 33.0678 8.75798 33.0288C9.09797 32.9267 9.41302 32.7228 9.65011 32.4244C9.91261 32.0951 10.0414 31.6994 10.0407 31.3084C10.0407 31.2092 10.0331 31.1102 10.0167 31.0129C9.99425 30.8797 9.86838 30.7895 9.73541 30.812C9.6022 30.8341 9.51226 30.96 9.53474 31.0936Z" fill="#FFB524" class="fill-path"/>
</svg>
