<svg style="height:1em;width:1.0482em" viewBox="0 0 174 166" fill="none" xmlns="http://www.w3.org/2000/svg">
<path d="M130.466 9.21594C126.13 7.78375 121.949 7.24531 118.047 7.24531C108.388 7.31763 100.156 10.4217 94.892 11.4247C96.5057 8.46998 99.5171 4.60182 100.754 3.45182C101.507 2.66891 101.485 1.42695 100.705 0.673126C99.9219 -0.0806979 98.6768 -0.0579023 97.9261 0.722647C96.2385 2.63197 92.1455 7.1557 90.5412 11.5544C87.5039 10.2669 80.6746 4.42967 67.7056 4.32513C64.2092 4.32513 60.2491 4.73623 55.712 5.71015C18.2912 13.5432 0.701698 43.6435 0.971314 82.5247C0.97996 123.472 29.9224 157.649 68.5042 165.751H68.5066C69.2918 165.916 70.07 165.989 70.8262 165.989C78.0107 165.549 82.6948 161.062 85.7518 161.461C90.4971 161.275 96.729 164.966 104.192 165.167C105.53 165.167 106.916 165.016 108.311 164.64C143.958 155.26 166.184 132.616 171.846 94.3187C172.896 87.4643 173.4 81.0242 173.4 74.9865C173.572 38.9397 154.908 17.1071 130.466 9.21594ZM164.075 93.1278C158.373 128.909 139.74 147.806 106.267 157.05C105.625 157.222 104.948 157.305 104.192 157.305C99.8535 157.507 93.4637 153.782 85.7518 153.599C78.377 153.997 73.421 158.565 70.8262 158.126C70.5731 158.126 70.3443 158.104 70.1156 158.057H70.118C35.1245 150.708 8.82319 119.678 8.83262 82.524C9.10145 45.6047 23.8509 20.7764 57.3619 13.3977C61.4282 12.5244 64.8294 12.1849 67.7056 12.1849C80.5725 12.0607 82.613 18.6682 91.8657 19.5934C99.9038 19.3922 108.247 15.0209 118.047 15.1066C121.236 15.109 124.531 15.5366 128.002 16.6811C149.516 23.9544 165.366 41.5911 165.538 74.9865C165.538 80.5871 165.073 86.6319 164.075 93.1278Z" fill="#FFB524" class="fill-path"/>
<path d="M150.88 94.4525C150.453 94.3778 150.045 94.6655 149.971 95.0923C146.581 114.42 133.862 130.513 116.668 138.483C116.274 138.666 116.102 139.132 116.286 139.526C116.469 139.92 116.935 140.092 117.329 139.908C134.984 131.724 148.036 115.209 151.519 95.3635C151.593 94.9367 151.308 94.5295 150.88 94.4525Z" fill="#FFB524" class="fill-path"/>
<path d="M149.237 70.8324C150.302 75.2877 150.868 79.9427 150.868 84.7314C150.868 85.1661 151.219 85.519 151.653 85.519C152.088 85.519 152.441 85.1661 152.441 84.7314C152.441 79.8186 151.862 75.0417 150.767 70.4669C150.665 70.0432 150.243 69.783 149.819 69.8852C149.398 69.9866 149.137 70.4095 149.237 70.8324Z" fill="#FFB524" class="fill-path"/>
</svg>
