<svg style="height:1em;width:1.9018em" viewBox="0 0 213 112" fill="none" xmlns="http://www.w3.org/2000/svg">
<path d="M211.001 0.93277H2.69872C1.6124 0.93277 0.734375 1.81236 0.734375 2.89633C0.734375 3.21153 0.734375 4.72862 0.734375 5.25448C0.736733 63.8633 48.2434 111.37 106.852 111.372C165.461 111.37 212.965 63.8633 212.968 5.25448C212.968 4.58948 212.968 3.08026 212.968 2.89633C212.968 1.81236 212.087 0.93277 211.001 0.93277ZM106.852 103.511C52.5887 103.414 8.69315 59.518 8.59568 5.25448C8.59568 5.12007 8.61926 4.86303 8.61926 4.86303H205.084C205.084 4.86303 205.109 5.12007 205.109 5.25448C205.009 59.518 161.116 103.414 106.852 103.511Z" fill="#FFB524" class="fill-path"/>
<path d="M189.694 22.0359C189.269 21.9542 188.857 22.2348 188.778 22.6624C187.796 27.8834 186.313 32.9275 184.383 37.7405C184.22 38.1429 184.417 38.6028 184.82 38.7631C185.223 38.9242 185.681 38.7293 185.841 38.3268C187.812 33.4187 189.322 28.2748 190.324 22.9525C190.402 22.5272 190.122 22.1153 189.694 22.0359Z" fill="#FFB524" class="fill-path"/>
<path d="M179.347 49.6413C178.977 49.4149 178.493 49.5297 178.267 49.9015C166.973 68.3029 148.53 81.8443 126.809 86.6596C126.386 86.7524 126.117 87.1729 126.212 87.5966C126.307 88.0203 126.726 88.2891 127.149 88.194C149.298 83.2859 168.096 69.482 179.608 50.7229C179.833 50.3542 179.717 49.8692 179.347 49.6413Z" fill="#FFB524" class="fill-path"/>
<path d="M151.499 34.5522C154.914 34.5483 156.674 32.319 156.679 29.909C156.605 25.614 153.082 20.3121 152.549 19.4718C152.457 19.2926 152.325 19.1346 152.157 19.0222C151.899 18.85 151.578 18.7871 151.273 18.8477C151.164 18.8697 151.061 18.9121 150.963 18.9624C150.951 18.9687 150.94 18.975 150.928 18.9813C150.865 19.0167 150.808 19.0575 150.752 19.1031C150.733 19.1189 150.712 19.133 150.694 19.1503C150.645 19.1975 150.601 19.2493 150.56 19.3044C150.548 19.3209 150.532 19.3327 150.521 19.3492C150.503 19.4576 146.398 25.2736 146.318 29.9082C146.326 32.319 148.085 34.5475 151.499 34.5522ZM151.512 22.2866C152.656 24.2864 154.374 27.697 154.32 29.909C154.147 31.4567 154.085 32.018 151.499 32.1948C148.912 32.018 148.853 31.4567 148.677 29.909C148.624 27.6955 150.369 24.2856 151.512 22.2866Z" fill="#FFB524" class="fill-path"/>
<path d="M133.961 62.0185C133.888 57.7337 130.382 52.4483 129.838 51.5907C129.75 51.4115 129.619 51.2503 129.442 51.1324C129.066 50.8832 128.604 50.8809 128.233 51.0782C128.23 51.0798 128.228 51.0805 128.226 51.0821C128.149 51.1238 128.076 51.1733 128.009 51.2322C128.003 51.2378 127.996 51.2425 127.99 51.2488C127.925 51.3093 127.863 51.3761 127.811 51.4531C127.81 51.4555 127.807 51.4578 127.804 51.461C127.786 51.5695 123.684 57.3855 123.602 62.0192C123.609 64.4293 125.368 66.6585 128.782 66.6625C132.197 66.6577 133.957 64.4285 133.961 62.0185ZM125.963 62.0185C125.908 59.8057 127.653 56.3974 128.796 54.3977C129.939 56.3974 131.657 59.8065 131.603 62.0185C131.429 63.5662 131.368 64.1274 128.781 64.3043C126.195 64.1282 126.136 63.567 125.963 62.0185Z" fill="#FFB524" class="fill-path"/>
<path d="M61.2898 19.0222C60.918 18.7746 60.4573 18.7714 60.0871 18.9664C60.0816 18.9695 60.0753 18.9727 60.0698 18.9758C59.9998 19.0143 59.9338 19.0599 59.8717 19.1134C59.8591 19.1244 59.8458 19.133 59.8332 19.1448C59.7813 19.1935 59.7349 19.2478 59.6917 19.3075C59.6799 19.3232 59.6642 19.335 59.654 19.3507C59.6359 19.4592 55.5335 25.2752 55.4541 29.9098C55.4588 32.3198 57.2172 34.5483 60.631 34.553C64.0457 34.5491 65.8064 32.3198 65.8111 29.9098C65.738 25.6337 62.2464 20.3624 61.6899 19.4859C61.601 19.3044 61.4698 19.1417 61.2898 19.0222ZM60.631 32.1948C58.0465 32.018 57.986 31.4567 57.8115 29.909C57.758 27.6963 59.5023 24.2872 60.6452 22.2874C61.7889 24.2879 63.5064 27.697 63.453 29.909C63.2785 31.4567 63.2172 32.0172 60.631 32.1948Z" fill="#FFB524" class="fill-path"/>
<path d="M106.746 23.7534C106.493 23.5742 106.171 23.505 105.866 23.5585C105.745 23.5797 105.631 23.6245 105.523 23.6819C105.517 23.6851 105.51 23.6882 105.504 23.6913C105.423 23.7361 105.348 23.7872 105.279 23.8486C105.278 23.8493 105.277 23.8501 105.276 23.8509C105.212 23.9091 105.153 23.972 105.103 24.0435L105.098 24.0498C105.095 24.0545 105.093 24.0608 105.09 24.0655C105.089 24.0663 105.088 24.0671 105.087 24.0679C105.069 24.1763 100.964 29.9916 100.885 34.6238C100.892 37.0338 102.651 39.263 106.065 39.267C109.479 39.263 111.24 37.0338 111.245 34.6238C111.172 30.3516 107.681 25.0842 107.124 24.2046C107.037 24.0262 106.91 23.8674 106.746 23.7534ZM106.065 36.9104C103.478 36.7335 103.419 36.1731 103.243 34.6245C103.189 32.411 104.935 29.0019 106.078 27.003C107.222 29.0027 108.939 32.4126 108.886 34.6245C108.712 36.1723 108.651 36.7335 106.065 36.9104Z" fill="#FFB524" class="fill-path"/>
<path d="M84.0062 51.1324C83.6328 50.884 83.1706 50.8809 82.7996 51.0782C82.7964 51.0798 82.7933 51.0813 82.7901 51.0829C82.7131 51.1246 82.6408 51.1749 82.574 51.2338C82.5685 51.2393 82.5614 51.2433 82.5559 51.2488C82.4891 51.3109 82.4262 51.3792 82.3735 51.4578L82.3688 51.4649C82.3649 51.4712 82.3617 51.4791 82.3578 51.4854C82.2069 51.777 78.2491 57.4625 78.1689 62.0185C78.1752 64.4285 79.9336 66.6577 83.3482 66.6617C86.7628 66.6577 88.5228 64.4285 88.5275 62.0185C88.4544 57.7565 84.984 52.5057 84.4126 51.6064C84.3237 51.4209 84.1901 51.255 84.0062 51.1324ZM83.3475 64.3043C80.7606 64.1274 80.7024 63.567 80.5279 62.0185C80.4729 59.8049 82.2179 56.3958 83.3608 54.3961C84.5045 56.3958 86.2228 59.8065 86.1694 62.0185C85.9949 63.567 85.9343 64.1282 83.3475 64.3043Z" fill="#FFB524" class="fill-path"/>
</svg>
