<svg style="height:1em;width:1.02em" viewBox="0 0 51 50" fill="none" xmlns="http://www.w3.org/2000/svg">
<path d="M33.829 0.239061C33.7504 0.239061 33.6723 0.239839 33.5929 0.241396C28.9386 0.463761 27.3288 3.27848 25.4676 3.03639C24.7341 3.05274 24.1111 2.59659 22.984 1.76604C21.9007 0.970504 20.318 -0.0108077 18.0276 8.99652e-05H18.0014C6.62554 0.170561 0.0313957 13.1572 0 24.3001C0.248052 38.7352 16.879 49.8306 26.0507 50C34.9396 49.8267 50.7033 38.6791 50.934 24.3001C50.8925 13.5239 44.8733 0.441706 33.829 0.239061ZM25.4674 5.63082C25.6994 5.61603 25.9202 5.59268 26.1327 5.5618C27.9489 6.12122 30.2419 8.69308 31.9837 11.979C34.0203 15.7205 35.4525 20.2973 35.4437 23.2493C35.4162 30.7121 31.9845 36.3652 26.2845 36.3784C20.6353 36.3659 15.4924 31.3514 15.488 24.2392C15.488 24.1473 15.4887 24.0547 15.4903 23.962C15.5642 19.8738 16.7267 15.1541 18.5611 11.5184C20.1934 8.25509 22.3525 5.96787 24.5398 5.53015C24.8291 5.59061 25.1368 5.62771 25.4674 5.63082ZM39.9704 40.545C35.2826 44.8257 29.4871 47.4453 26.0509 47.4056C22.4267 47.4424 16.3369 44.8098 11.4003 40.5239C6.4203 36.2448 2.57704 30.4163 2.59495 24.3001C2.58924 19.1888 4.16655 13.6419 6.91251 9.48342C9.67611 5.30753 13.4646 2.59452 18.0017 2.59504H18.0175H18.0227C19.607 2.61372 20.4474 3.15004 21.4669 3.87085C21.8678 4.15211 22.3011 4.49591 22.8003 4.80545C17.6574 7.3153 14.4088 16.5397 14.194 23.9371C14.1916 24.0381 14.1909 24.1387 14.1909 24.2389C14.2028 31.9853 19.8424 37.6713 26.2847 37.675C33.0335 37.648 36.7309 31.0092 36.7413 23.249C36.609 17.6707 32.658 8.05945 27.9487 5.0644C29.9975 4.22372 31.1959 2.77719 33.6401 2.83531C33.7034 2.83453 33.7662 2.83375 33.8293 2.83375C38.1354 2.83064 41.7013 5.53404 44.303 9.69748C46.8852 13.8386 48.3455 19.3406 48.3396 24.2996C48.3541 30.4467 44.6992 36.2723 39.9704 40.545Z" fill="#FFB524" class="fill-path"/>
<path d="M32.5548 25.6268C32.56 25.7703 32.6801 25.8821 32.8229 25.8769C32.9663 25.8725 33.0782 25.7524 33.073 25.6089C33.0335 24.4794 32.7318 23.4083 32.2245 22.4605C32.1563 22.3344 31.9996 22.2864 31.8732 22.3544C31.7463 22.4216 31.6991 22.5791 31.7666 22.7057C32.238 23.5861 32.5172 24.5788 32.5548 25.6268Z" fill="#FFB524" class="fill-path"/>
<path d="M25.3689 33.1187C25.5108 33.127 25.6527 33.1306 25.7931 33.1306C29.2635 33.1306 32.223 30.6932 32.9223 27.3686C32.9513 27.2282 32.8618 27.0907 32.7214 27.0609C32.5818 27.0318 32.4435 27.1211 32.4142 27.2617C31.7668 30.345 29.0162 32.6119 25.7931 32.6119C25.6626 32.6119 25.5308 32.6083 25.3987 32.6008C25.2552 32.5927 25.133 32.7017 25.1244 32.845C25.1164 32.9879 25.2264 33.1104 25.3689 33.1187Z" fill="#FFB524" class="fill-path"/>
</svg>
